<svg width="112" height="77" viewBox="0 0 112 77" fill="none" xmlns="http://www.w3.org/2000/svg">
    <rect y="0.482056" width="112" height="76" rx="4" fill="white" />
    <g style="mix-blend-mode:multiply" opacity="0.55">
        <ellipse cx="54.9067" cy="31.1" rx="24.375" ry="24.6" fill="#E2F4FE" />
    </g>
    <path opacity="0.0973075" fill-rule="evenodd" clip-rule="evenodd"
       d="M54.9817 28.4L73.558 66.2H36.4055L54.9817 28.4Z"
        fill="#2B7285" />
    <g style="mix-blend-mode:multiply" opacity="0.8">
        <rect x="8.82513" y="47.3516" width="59.2042" height="4.98403" fill="#FFDF9F" />
    </g>
    <g style="mix-blend-mode:multiply" opacity="0.9">
        <rect x="10.0829" y="37.3203" width="56.5217" height="2.33423" fill="#FFDF9F" />
    </g>
    <g style="mix-blend-mode:multiply" opacity="0.8">
        <rect x="10.0829" y="32.6519" width="56.5217" height="2.33423" fill="#FFDF9F" />
    </g>
    <g style="mix-blend-mode:multiply" opacity="0.8">
        <rect x="10.0829" y="41.9888" width="56.5217" height="2.33423" fill="#FFDF9F" />
    </g>
    <g style="mix-blend-mode:multiply">
        <rect x="11.8458" y="31.5718" width="3.17166" height="34.2841" fill="#FFDF9F" />
    </g>
    <g style="mix-blend-mode:multiply">
        <rect x="61.837" y="30.9675" width="3.17167" height="34.8882" fill="#FFDF9F" />
    </g>
    <path fill-rule="evenodd" clip-rule="evenodd"
        d="M52.0199 29.2307C48.8265 30.9205 49.5312 34.053 49.2439 36.9757C48.9565 39.8983 48.9441 40.8421 48.8884 41.5537L42.2321 44.5516L40.3037 42.4631L46.5846 39.4126C46.5846 39.4126 47.3596 34.5252 48.0968 32.2159C48.8341 29.9066 50.6282 29.4385 52.0199 29.2307Z"
        fill="#2B7285" />
    <path
        d="M55.5692 28.9288C55.5692 28.9288 53.3793 31.5718 52.02 29.2309C52.02 29.2309 50.5241 29.413 49.6019 31.254C48.6841 35.681 48.3952 41.1623 48.6891 46.2261C50.9588 46.0987 60.5411 45.797 60.5411 45.797C60.5411 41.6154 60.8802 34.2129 59.8272 29.8466C58.3012 29.3508 57.7592 29.2309 55.5692 28.9288Z"
        fill="#2B7285" />
    <path
        d="M50.7663 19.2116C52.7564 18.4999 54.6613 19.3728 54.8245 20.0985C54.4247 20.1727 51.9508 18.6779 49.6562 20.9152C48.9459 22.1595 49.0945 23.3442 49.0945 23.3442L48.783 22.204C48.6346 21.4043 48.7761 19.9233 50.7663 19.2116Z"
        fill="#D8D8D8" />
    <path
        d="M53.7773 30.9331C52.7898 30.9234 51.9958 30.2269 52.0041 29.3774L52.0154 28.2201C50.3689 28.204 49.0455 27.0428 49.0593 25.6269L49.0899 22.4979C49.1063 20.8131 50.7077 19.4623 52.6669 19.4815C54.5304 19.4997 56.0093 20.8426 55.9296 22.4436L55.5792 29.4654C55.5377 30.2936 54.7409 30.9425 53.7773 30.9331Z"
        fill="#8E6E25" />
    <path d="M51.3679 23.6619L50.0932 25.3006L51.3518 25.3129L51.3679 23.6619Z" fill="#7C5600" />
    <ellipse cx="0.377588" cy="0.353819" rx="0.377588" ry="0.353819"
        transform="matrix(-0.999952 -0.00977155 -0.00977148 0.999952 50.4912 23.1814)"
        fill="#303030" />
    <ellipse cx="0.377962" cy="0.35382" rx="0.377962" ry="0.35382"
        transform="matrix(-0.999952 -0.00977153 -0.0097715 0.999952 52.7567 23.2036)" fill="#303030" />
    <g style="mix-blend-mode:multiply" opacity="0.8">
        <path
            d="M55.2965 23.0456L55.2746 25.2863C55.2746 25.2863 56.313 25.1947 56.2917 24.1757C56.2701 23.1569 55.2965 23.0456 55.2965 23.0456Z"
            fill="#7C5600" />
    </g>
    <path
        d="M52.4761 26.1494L50.4624 26.1297C50.4624 26.1297 50.5339 26.9009 51.4623 26.8431C52.3912 26.7851 52.4761 26.1494 52.4761 26.1494Z"
        fill="#7C5600" />
    <path fill-rule="evenodd" clip-rule="evenodd"
        d="M60.1 29.8567C62.3405 31.499 62.6216 34.7321 62.3342 37.6548C62.0469 40.5774 61.2489 40.4896 59.7558 41.3234L53.0995 44.3213L51.1712 42.2328L58.4982 38.6633C58.4982 38.6633 58.0476 34.6614 58.2652 32.7699C58.4829 30.8784 59.064 29.6237 60.1 29.8567Z"
        fill="#2B7285" />
    <path fill-rule="evenodd" clip-rule="evenodd"
        d="M60.503 45.5301C60.6535 47.5964 59.7645 49.6019 58.1323 50.878L56.5905 52.0834L53.5995 54.874L53.9712 63.7294L49.8553 63.1253L48.3518 55.4048C48.2581 54.9237 48.3063 54.4257 48.4904 53.9714L48.7613 53.3033C49.9318 50.416 51.6696 47.7928 53.8719 45.5891L60.503 45.5301Z"
        fill="#00C5A3" />
    <path fill-rule="evenodd" clip-rule="evenodd"
        d="M48.8879 45.7401C44.2559 48.8587 41.9132 54.4264 42.9223 59.9184L43.4154 62.6021L47.7412 63.0497L47.0554 55.9564C46.9265 54.6222 47.4743 53.3122 48.5145 52.467L50.4737 50.8752L54.1739 45.5891L48.8879 45.7401Z"
        fill="#00C5A3" />
    <path fill-rule="evenodd" clip-rule="evenodd"
        d="M43.0276 43.6218C43.0276 43.6218 38.2501 46.1919 37.9767 45.7753C37.7033 45.3587 40.7319 43.4295 40.7319 43.4295L39.2062 43.3024C39.2062 43.3024 40.3214 42.4792 41.319 42.7316L43.0276 43.6218Z"
        fill="#907633" />
    <g style="mix-blend-mode:multiply">
        <path fill-rule="evenodd" clip-rule="evenodd"
            d="M47.0757 62.8351C46.8689 63.5455 47.4275 64.2509 47.4275 64.2509L47.6198 64.8573L46.8658 65.4602C46.3128 65.9024 45.5857 66.0894 44.8958 65.9313C44.5038 65.8411 44.2312 65.6721 44.4775 65.3555C45.0517 64.617 44.6581 62.5719 44.6581 62.5719C44.6581 62.5719 47.2825 62.1248 47.0757 62.8351Z"
            fill="#977833" />
    </g>
    <g style="mix-blend-mode:multiply">
        <path fill-rule="evenodd" clip-rule="evenodd"
            d="M53.4432 63.3693C53.2159 63.995 53.7483 64.5925 53.7483 64.5925L53.9202 65.1151L53.1531 65.6641C52.5906 66.0668 51.8632 66.2524 51.1834 66.1361C50.7971 66.0697 50.5319 65.9308 50.7862 65.6473C51.379 64.9856 51.0522 63.2152 51.0522 63.2152C51.0522 63.2152 53.6706 62.7437 53.4432 63.3693Z"
            fill="#977833" />
    </g>
    <g style="mix-blend-mode:multiply">
        <path fill-rule="evenodd" clip-rule="evenodd"
            d="M47.565 64.7931C47.8531 64.8378 47.8206 66.4742 47.8206 66.4742C47.8206 66.4742 44.8123 66.9951 44.1233 67.036C42.4121 67.1374 41.4473 67.1267 41.2558 66.7272C41.0643 66.3274 43.3658 65.4593 43.4742 65.3374C43.8032 65.0089 44.1507 64.7 44.5147 64.4122C44.8453 64.1631 44.9578 65.267 44.9578 65.267C45.4008 66.1219 47.2768 64.7483 47.565 64.7931Z"
            fill="#2B7285" />
    </g>
    <g style="mix-blend-mode:multiply">
        <path fill-rule="evenodd" clip-rule="evenodd"
            d="M53.8735 64.8769C54.169 64.8887 54.31 66.5182 54.31 66.5182C54.31 66.5182 51.3304 67.3764 50.6395 67.495C48.9238 67.7896 47.9493 67.8882 47.7136 67.5129C47.4778 67.1375 49.7077 66.0143 49.804 65.8811C50.1011 65.5174 50.4187 65.1711 50.7554 64.844C51.0626 64.5589 51.2934 65.6432 51.2934 65.6432C51.8313 66.4421 53.578 64.8652 53.8735 64.8769Z"
            fill="#2B7285" />
    </g>
    <path
        d="M56.4981 23.4272C56.4981 23.4272 56.0053 23.1067 55.5516 23.5715C54.4925 24.2207 54.36 22.7764 54.7541 22.3023C55.3171 21.6251 55.2599 21.005 54.5141 19.8966C54.5141 19.8966 57.0401 20.3628 56.4981 23.4272Z"
        fill="#D8D8D8" />
    <g style="mix-blend-mode:multiply" opacity="0.8">
        <path
            d="M31.3464 63.7991C31.1704 54.6968 30.5554 53.2922 30.5554 53.2922L34.4555 53.064L33.9575 56.3704L33.119 62.1732L33.0737 64.172L31.3464 63.7991Z"
            fill="#7C5600" />
    </g>
    <g style="mix-blend-mode:multiply" opacity="0.8">
        <path
            d="M26.4858 54.2802C26.4858 54.2802 26.3155 54.4496 26.8345 64.2785L28.2915 64.6518L30.3734 53.7488L26.4858 54.2802Z"
            fill="#7C5600" />
    </g>
    <path
        d="M31.1341 47.9778C33.3241 49.1105 34.8141 49.7728 35.3427 53.02L32.5083 53.4368L26.0058 45.7672L27.6731 45.3232C29.4238 46.9906 29.1219 46.937 31.1341 47.9778Z"
        fill="#2B7285" />
    <path fill-rule="evenodd" clip-rule="evenodd"
        d="M35.3389 53.066C34.7674 53.121 27.7064 54.3453 26.4227 55.327C23.3953 53.0391 22.1539 52.439 20.5781 51.832C19.0024 51.2251 17.1477 50.8726 16.1572 48.4645C15.5018 46.4903 16.002 44.9063 16.002 44.9063C16.002 44.9063 23.9217 45.1564 27.5898 45.3232"
        fill="#2B7285" />
    <path opacity="0.7"
        d="M24.5667 30.0867C24.5088 27.9431 24.5695 23.7294 25.2631 21.7928C25.3608 21.5201 25.2539 21.0771 25.0971 20.8335C24.7451 20.2867 25.428 19.871 26.0333 20.1086L26.5308 20.3039C26.7104 20.3744 26.8699 20.4911 26.9733 20.6541C27.5159 21.5095 27.9701 22.9336 28.0438 24.0966C28.1165 25.2429 28.1834 26.2805 28.2401 27.1519C28.341 28.7012 27.199 30.0867 25.6464 30.0867C24.4055 30.0867 24.8523 29.7765 24.5667 30.0867C24.5789 30.5404 24.5965 30.9014 24.6145 31.1284C24.7247 32.5167 24.2908 30.3863 24.5667 30.0867Z"
        fill="#C4C4C4" />
    <g style="mix-blend-mode:multiply">
        <path fill-rule="evenodd" clip-rule="evenodd"
            d="M26.4844 63.3325C26.4051 63.1547 25.9079 65.2643 25.8398 65.373C25.7715 65.4815 28.2856 66.1449 28.5322 66.2251C29.1567 66.4278 30.3101 66.7687 31.1653 66.4206C32.0206 66.0723 29.5171 64.9906 29.5171 64.9906L28.8975 63.9498C28.7426 63.6898 28.0423 64.2981 28.0423 64.2981C27.6257 64.7586 26.5638 63.5103 26.4844 63.3325Z"
            fill="#FE635A" />
    </g>
    <g style="mix-blend-mode:multiply">
        <path fill-rule="evenodd" clip-rule="evenodd"
            d="M30.8342 63.2127C30.6019 63.2697 30.5088 65.163 30.5088 65.163C30.5088 65.163 32.8608 65.7103 33.4051 65.7451C34.7573 65.8309 35.5245 65.8008 35.7058 65.3347C35.8871 64.8686 33.3531 63.9654 33.2759 63.8263C33.0385 63.4521 33.0474 63.2455 32.7791 62.9193C32.5344 62.637 32.7522 63.6779 32.7522 63.6779C32.0284 64.4166 31.0664 63.1556 30.8342 63.2127Z"
            fill="#FE635A" />
    </g>
    <path opacity="0.9" fill-rule="evenodd" clip-rule="evenodd"
        d="M19.1699 29.6778L18.1125 33.7285L15.9187 45.1838L27.611 45.3505L26.8395 30.5949L19.1699 29.6778Z"
        fill="#FFDF9F" />
    <g style="mix-blend-mode:multiply" opacity="0.7">
        <path fill-rule="evenodd" clip-rule="evenodd"
            d="M24.8387 30.3447L25.3389 46.4342L27.6731 45.9341L26.8395 30.5948L24.8387 30.3447Z"
            fill="#F7544B" />
    </g>
    <path fill-rule="evenodd" clip-rule="evenodd"
        d="M24.8282 30.6886L24.7382 29.0983C26.083 29.1083 27.1816 28.0125 27.1916 26.6505L27.2139 23.6415C27.2259 22.0209 25.9382 20.6975 24.3377 20.6857C22.8156 20.6744 21.5873 21.943 21.6284 23.4836L21.9066 30.7178C21.928 31.5147 22.5688 32.1513 23.3563 32.1571C24.163 32.1631 24.8222 31.5056 24.8282 30.6886Z"
        fill="#8E6E25" />
    <path fill-rule="evenodd" clip-rule="evenodd"
        d="M24.6397 24.5394C24.6382 24.7479 24.4679 24.9157 24.2593 24.9142C24.0507 24.9126 23.8831 24.7423 23.8846 24.5338C23.8861 24.3253 24.0563 24.1575 24.2649 24.159C24.4735 24.1606 24.6413 24.3309 24.6397 24.5394Z"
        fill="#003147" />
    <path fill-rule="evenodd" clip-rule="evenodd"
        d="M26.9052 24.5562C26.9036 24.7648 26.7334 24.9326 26.5249 24.931C26.3162 24.9295 26.1485 24.7592 26.15 24.5506C26.1516 24.3421 26.3218 24.1743 26.5304 24.1759C26.739 24.1774 26.9067 24.3477 26.9052 24.5562Z"
        fill="#003147" />
    <g style="mix-blend-mode:multiply" opacity="0.59575">
        <path fill-rule="evenodd" clip-rule="evenodd"
            d="M25.5463 24.4707L26.4391 26.2897L25.5329 26.283L25.5463 24.4707Z" fill="#7C5600" />
    </g>
    <g style="mix-blend-mode:multiply" opacity="0.59575">
        <path fill-rule="evenodd" clip-rule="evenodd"
            d="M24.4714 26.8794L25.8306 26.8895C25.8306 26.8895 25.7714 27.7112 25.1454 27.6352C24.5196 27.5591 24.4714 26.8794 24.4714 26.8794Z"
            fill="#7C5600" />
    </g>
    <g style="mix-blend-mode:multiply" opacity="0.7">
        <path fill-rule="evenodd" clip-rule="evenodd"
            d="M19.1699 29.6778L17.586 34.7631L15.7519 46.2675L20.6705 46.8511L21.0873 30.0946L19.1699 29.6778Z"
            fill="#F7544B" />
    </g>
    <path fill-rule="evenodd" clip-rule="evenodd"
        d="M31.3033 42.7237C31.3033 42.7237 35.7492 42.0903 35.6901 41.582C35.6311 41.0738 32.6459 41.2244 32.6459 41.2244L33.5386 40.2284C33.5386 40.2284 31.7288 40.4874 31.2393 41.2802L31.3033 42.7237Z"
        fill="#9A7216" />
    <path fill-rule="evenodd" clip-rule="evenodd"
        d="M26.7274 30.6046C26.7551 30.5172 27.781 30.8584 28.2143 32.9078C28.8423 35.8781 29.0792 40.5078 29.5791 40.7783L31.3597 40.9501L31.9187 42.9744C28.4155 42.9744 27.8114 43.3712 27.5093 42.5405C27.0562 40.5016 27.1756 39.515 26.7887 33.8683L26.7274 30.6046Z"
        fill="#FE635A" />
    <g style="mix-blend-mode:multiply" opacity="0.3">
        <path fill-rule="evenodd" clip-rule="evenodd"
            d="M26.3014 30.6105C26.3291 30.5231 27.355 30.8642 27.7883 32.9137C28.4163 35.8839 28.6532 40.5137 29.153 40.7841L30.9337 40.9559L31.4927 42.9802C27.9895 42.9802 27.3853 43.3771 27.0833 42.5464C26.6302 40.5075 26.7496 39.5209 26.3627 33.8742L26.3014 30.6105Z"
            fill="#F6544B" />
    </g>
    <path fill-rule="evenodd" clip-rule="evenodd"
        d="M15.9693 31.7269L11.8914 38.3518C11.4794 39.1339 12.1329 40.3662 12.9487 40.7133L18.045 44.6732L19.6633 42.1597L15.5248 39.1429C15.2231 39.0063 15.0908 38.651 15.2301 38.3518L16.951 36.4089C16.951 36.4089 18.3103 34.4455 18.9899 33.2373C19.6695 32.029 20.1226 29.8505 20.1226 29.8505C20.1226 29.8505 18.5368 29.537 17.6306 29.9901C16.7244 30.4432 16.2794 31.1382 15.9693 31.7269Z"
        fill="#FE635A" />
    <path fill-rule="evenodd" clip-rule="evenodd"
        d="M19.0851 42.7138C19.0851 42.7138 22.3137 41.9769 22.5331 45.0222C22.5921 45.4382 20.2955 43.7939 20.2955 43.7939L21.1251 44.6811C21.1251 44.6811 19.1942 44.4466 18.4669 43.8352L19.0851 42.7138Z"
        fill="#8E6E25" />
    <path opacity="0.9"
        d="M19.9051 21.7518C20.943 19.7712 22.6775 18.918 24.4871 19.5388L25.265 20.9807C25.2911 20.9998 25.309 21.0323 25.3178 21.0785L25.265 20.9807C25.0407 20.8163 24.2167 21.6506 23.5048 23.268C23.3518 23.6156 21.8926 23.2525 21.8536 24.1967C21.7695 26.2338 21.8083 28.1151 21.8536 29.567L19.3366 29.4837C19.3366 27.8997 18.8672 23.7324 19.9051 21.7518Z"
        fill="#D2D1D1" />
    <path
        d="M25.2154 20.9443L24.4882 19.5452C28.2859 18.9002 28.2059 24.6805 28.1129 27.696L27.1239 27.3459C27.9254 22.8275 26.0631 21.0907 25.2154 20.9443Z"
        fill="#D2D1D1" />
    <g style="mix-blend-mode:multiply" opacity="0.8">
        <path fill-rule="evenodd" clip-rule="evenodd"
            d="M21.9043 24.8036L21.8922 26.4414C21.8922 26.4414 20.9533 26.36 20.9872 25.6158C21.0212 24.8715 21.9043 24.8036 21.9043 24.8036Z"
            fill="#7C5600" />
    </g>
    <path opacity="0.6" fill-rule="evenodd" clip-rule="evenodd"
        d="M19.9893 45.1443C19.8734 45.4016 19.842 45.7353 19.8555 45.9639C19.8695 46.2024 19.6876 46.4072 19.449 46.4213C19.2104 46.4353 19.0057 46.2534 18.9916 46.0148C18.9729 45.6979 19.0091 45.2133 19.2003 44.7888C19.4008 44.3439 19.8019 43.9202 20.4852 43.9202C21.2393 43.9202 21.7125 44.3016 21.9726 44.7658C22.216 45.2003 22.2691 45.6926 22.2691 45.9893V65.6483C22.2691 65.8872 22.0754 66.081 21.8364 66.081C21.5974 66.081 21.4037 65.8872 21.4037 65.6483V45.9893C21.4037 45.7692 21.3603 45.4434 21.2176 45.1888C21.0916 44.964 20.8892 44.7856 20.4852 44.7856C20.2419 44.7856 20.0961 44.9073 19.9893 45.1443Z"
        fill="#00C5A3" />
    <path opacity="0.9" d="M32.3857 40.0293H34.9533L34.6512 43.8051H32.6878L32.3857 40.0293Z"
        fill="#00C5A3" />
    <g style="mix-blend-mode:multiply">
        <path d="M32.0914 40.2429H35.263L35.0409 39.4878H32.3135L32.0914 40.2429Z" fill="#00C5A3" />
    </g>
    <g style="mix-blend-mode:multiply" opacity="0.3">
        <path fill-rule="evenodd" clip-rule="evenodd"
            d="M59.6419 30.0066C58.8891 30.1889 58.4484 31.3299 58.2652 32.922C58.0476 34.8135 58.4982 38.8154 58.4982 38.8154L51.1712 42.3222L53.0995 44.4734L59.7558 41.4755C59.9788 41.351 60.1862 41.247 60.3787 41.1506C60.4543 41.1127 60.5276 41.0759 60.5987 41.0396C60.6221 37.2733 60.5408 32.9914 59.8361 30.0694C59.7696 30.0477 59.7049 30.0268 59.6419 30.0066Z"
            fill="#2B7285" />
    </g>
    <g style="mix-blend-mode:multiply" opacity="0.3">
        <path fill-rule="evenodd" clip-rule="evenodd"
            d="M52.0495 29.1504C48.8561 30.8402 49.5608 33.9727 49.2735 36.8954C48.9861 39.818 48.9737 40.7618 48.918 41.4734L42.2617 44.4713L40.3333 42.3828L46.6142 39.3323C46.6142 39.3323 47.3892 34.4449 48.1264 32.1356C48.8637 29.8263 50.6578 29.3582 52.0495 29.1504Z"
            fill="#2B7285" />
    </g>
    <g style="mix-blend-mode:multiply">
        <path fill-rule="evenodd" clip-rule="evenodd"
            d="M49.5981 51.5676C50.7148 49.3265 52.1873 47.2765 53.9617 45.4989L54.2725 45.49L50.5723 50.7761L49.5981 51.5676Z"
            fill="#00C5A3" />
    </g>
    <g style="mix-blend-mode:multiply" opacity="0.458612">
        <path fill-rule="evenodd" clip-rule="evenodd"
            d="M65.1676 66.9312C65.1676 66.9312 68.0002 65.8225 68.0434 62.6277C68.0867 59.4329 70.6873 56.7 70.6873 56.7C70.6873 56.7 65.9116 56.7424 64.7883 60.6017C63.665 64.4611 65.1676 66.9312 65.1676 66.9312Z"
            fill="#00C5A3" />
    </g>
    <g style="mix-blend-mode:multiply" opacity="0.458612">
        <path fill-rule="evenodd" clip-rule="evenodd"
            d="M61.6499 57.9514C61.6499 57.9514 63.982 60.2385 63.2731 62.5462C62.5643 64.8539 65.1676 66.9311 65.1676 66.9311C65.1676 66.9311 67.6521 57.6275 61.6499 57.9514Z"
            fill="#00C5A3" />
    </g>
    <g style="mix-blend-mode:multiply" opacity="0.458612">
        <path fill-rule="evenodd" clip-rule="evenodd"
            d="M71.2498 59.5237C71.2498 59.5237 68.3191 60.9735 68.2717 63.3864C68.2244 65.7994 65.1016 66.9655 65.1016 66.9655C65.1016 66.9655 65.6471 57.3533 71.2498 59.5237Z"
            fill="#00C5A3" />
    </g>
    <path opacity="0.094215" fill-rule="evenodd" clip-rule="evenodd"
        d="M62.2609 66.8036C62.2609 67.0225 63.5327 67.1999 65.1017 67.1999C66.6706 67.1999 67.9425 67.0225 67.9425 66.8036C67.9425 66.5847 66.6706 66.4072 65.1017 66.4072C63.5327 66.4072 62.2609 66.5847 62.2609 66.8036Z"
        fill="#2B7285" />
    <g style="mix-blend-mode:multiply" opacity="0.427037">
        <path fill-rule="evenodd" clip-rule="evenodd"
            d="M12.2812 66.5999C12.2812 66.5999 14.6542 64.3808 13.4677 61.1474C12.2812 57.914 13.7999 54.1499 13.7999 54.1499C13.7999 54.1499 9.09646 56.0519 9.47114 60.3749C9.84578 64.6979 12.2812 66.5999 12.2812 66.5999Z"
            fill="#00C5A3" />
    </g>
    <g style="mix-blend-mode:multiply" opacity="0.427037">
        <path fill-rule="evenodd" clip-rule="evenodd"
            d="M5.25 58.938C5.25 58.938 8.48919 60.3311 8.67972 62.9273C8.87028 65.5235 12.3 66.6 12.3 66.6C12.3 66.6 11.1568 56.2784 5.25 58.938Z"
            fill="#00C5A3" />
    </g>
    <g style="mix-blend-mode:multiply" opacity="0.427037">
        <path fill-rule="evenodd" clip-rule="evenodd"
            d="M15.4501 56.7C15.4501 56.7 13.08 59.3042 13.9734 61.7555C14.8669 64.2069 12.1937 66.6 12.1937 66.6C12.1937 66.6 8.99212 56.696 15.4501 56.7Z"
            fill="#00C5A3" />
    </g>
    <path opacity="0.094215" fill-rule="evenodd" clip-rule="evenodd"
        d="M9 66.5483C9 66.7684 10.2742 66.9467 11.8461 66.9467C13.418 66.9467 14.6922 66.7684 14.6922 66.5483C14.6922 66.3283 13.418 66.1499 11.8461 66.1499C10.2742 66.1499 9 66.3283 9 66.5483Z"
        fill="#2B7285" />
    <path fill-rule="evenodd" clip-rule="evenodd"
        d="M52.9978 44.1831C52.9978 44.1831 48.6355 46.5279 48.3997 46.0524C48.164 45.5769 49.9003 44.1831 49.9003 44.1831L49.1618 43.7724C49.1618 43.7724 51.2334 42.6128 52.2182 42.9115L52.9978 44.1831Z"
        fill="#907633" />
</svg>